<svg width="209" height="209" viewBox="0 0 209 209" fill="none" xmlns="http://www.w3.org/2000/svg">
<path d="M145.833 83.3332C145.833 94.3839 141.443 104.982 133.629 112.796C125.815 120.61 115.217 125 104.167 125C93.116 125 82.5179 120.61 74.7039 112.796C66.8899 104.982 62.5 94.3839 62.5 83.3332C62.5 72.2825 66.8899 61.6844 74.7039 53.8704C82.5179 46.0564 93.116 41.6665 104.167 41.6665C115.217 41.6665 125.815 46.0564 133.629 53.8704C141.443 61.6844 145.833 72.2825 145.833 83.3332Z" fill="black" fill-opacity="0.3"/>
<path fill-rule="evenodd" clip-rule="evenodd" d="M99.9167 208.25C44.3594 206.021 0 160.271 0 104.167C0 46.6354 46.6354 0 104.167 0C161.698 0 208.333 46.6354 208.333 104.167C208.333 161.698 161.698 208.333 104.167 208.333C103.691 208.336 103.215 208.336 102.74 208.333C101.797 208.333 100.854 208.302 99.9167 208.25ZM37.3229 169.896C36.5441 167.659 36.279 165.276 36.5473 162.923C36.8156 160.57 37.6104 158.307 38.8728 156.303C40.1352 154.3 41.8326 152.606 43.8392 151.348C45.8457 150.09 48.1099 149.3 50.4635 149.036C91.0677 144.542 117.516 144.948 157.922 149.13C160.279 149.376 162.548 150.156 164.558 151.411C166.568 152.666 168.265 154.363 169.52 156.373C170.774 158.384 171.554 160.653 171.798 163.01C172.043 165.367 171.747 167.749 170.932 169.974C188.25 152.453 197.948 128.802 197.917 104.167C197.917 52.3906 155.943 10.4167 104.167 10.4167C52.3906 10.4167 10.4167 52.3906 10.4167 104.167C10.4167 129.771 20.6823 152.979 37.3229 169.896Z" fill="black" fill-opacity="0.3"/>
</svg>
